<svg width="96" height="96" viewBox="0 0 96 96" fill="none" xmlns="http://www.w3.org/2000/svg">
<path d="M0 48.0002C0 74.5092 21.4911 96.0002 48 96.0002C74.5089 96.0002 96 74.5092 96 48.0002H0.0165097H0Z" fill="#003366"/>
<path d="M0 48C0 21.4911 21.4911 0 48 0C74.5089 0 96 21.4911 96 48H0.0165097H0Z" fill="#CDE1FA"/>
<path d="M21.5572 48.0002C21.5572 62.6082 33.3921 74.4432 48.0001 74.4432C62.6081 74.4432 74.443 62.6082 74.443 48.0002H21.5572Z" fill="#F0F2F5"/>
<path d="M21.5572 48C21.5572 33.3921 33.3921 21.5571 48.0001 21.5571C62.6081 21.5571 74.443 33.3921 74.443 48H21.5572Z" fill="white"/>
<path d="M30.6195 50.8557C32.1966 50.8557 33.4751 49.5772 33.4751 48.0001C33.4751 46.423 32.1966 45.1445 30.6195 45.1445C29.0424 45.1445 27.7639 46.423 27.7639 48.0001C27.7639 49.5772 29.0424 50.8557 30.6195 50.8557Z" fill="#003366"/>
<path d="M65.3816 51.1862C66.9587 51.1862 68.2372 49.9078 68.2372 48.3307C68.2372 46.7536 66.9587 45.4751 65.3816 45.4751C63.8045 45.4751 62.5261 46.7536 62.5261 48.3307C62.5261 49.9078 63.8045 51.1862 65.3816 51.1862Z" fill="#003366"/>
<path d="M64.0445 41.2658C61.4035 34.8779 55.1146 30.3882 47.7694 30.3882C38.0472 30.3882 30.1738 38.2616 30.1738 47.9838" stroke="#003366" stroke-miterlimit="10"/>
<path d="M31.5109 55.8079C34.1519 62.1958 40.4407 66.6854 47.786 66.6854C57.5081 66.6854 65.3816 58.812 65.3816 49.0898" stroke="#003366" stroke-miterlimit="10"/>
<path d="M30.6195 48.0002H65.1669" stroke="#003366" stroke-miterlimit="10"/>
</svg>
