<svg width="512" height="512" viewBox="0 0 512 512" fill="none" xmlns="http://www.w3.org/2000/svg">
<path d="M0 256.001C0 397.382 114.619 512.001 256 512.001C397.381 512.001 512 397.382 512 256.001H0.0880518H0Z" fill="#003366"/>
<path d="M0 256C0 114.619 114.619 0 256 0C397.381 0 512 114.619 512 256H0.0880518H0Z" fill="#CDE1FA"/>
<path d="M114.972 256.001C114.972 333.91 178.091 397.03 256.001 397.03C333.91 397.03 397.029 333.91 397.029 256.001H114.972Z" fill="#F0F2F5"/>
<path d="M114.972 256.001C114.972 178.091 178.091 114.972 256.001 114.972C333.91 114.972 397.029 178.091 397.029 256.001H114.972Z" fill="white"/>
<path d="M163.304 271.231C171.715 271.231 178.534 264.412 178.534 256.001C178.534 247.59 171.715 240.771 163.304 240.771C154.893 240.771 148.074 247.59 148.074 256.001C148.074 264.412 154.893 271.231 163.304 271.231Z" fill="#003366"/>
<path d="M348.702 272.993C357.113 272.993 363.932 266.174 363.932 257.763C363.932 249.352 357.113 242.533 348.702 242.533C340.291 242.533 333.472 249.352 333.472 257.763C333.472 266.174 340.291 272.993 348.702 272.993Z" fill="#003366"/>
<path d="M341.571 220.084C327.485 186.015 293.945 162.07 254.77 162.07C202.919 162.07 160.927 204.062 160.927 255.913" stroke="#003366" stroke-width="5" stroke-miterlimit="10"/>
<path d="M168.058 297.642C182.143 331.71 215.684 355.655 254.858 355.655C306.71 355.655 348.702 313.664 348.702 261.812" stroke="#003366" stroke-width="5" stroke-miterlimit="10"/>
<path d="M163.304 256.001H347.557" stroke="#003366" stroke-width="5" stroke-miterlimit="10"/>
</svg>
